<?xml version="1.0" encoding="UTF-8"?>
<svg width="153px" height="25px" viewBox="0 0 153 25" version="1.1" xmlns="http://www.w3.org/2000/svg" xmlns:xlink="http://www.w3.org/1999/xlink">
    <title>WhiteClaimCenterAppLogo</title>
    <defs>
        <polygon id="path-1" points="0 23.6191 148.867 23.6191 148.867 0.0001 0 0.0001"></polygon>
    </defs>
    <g id="WhiteClaimCenterAppLogo" stroke="none" stroke-width="1" fill="none" fill-rule="evenodd">
        <g id="Page-1" transform="translate(1.000000, 1.000000)">
            <path d="M46.3548,16.0769 C45.5098,17.3889 43.7488,18.4129 41.6458,18.4129 C37.8538,18.4129 35.0138,15.5919 35.0138,11.7269 C35.0138,7.8639 37.8538,5.0419 41.6458,5.0419 C43.2278,5.0419 44.9348,5.6349 46.0488,7.0549 L44.9178,7.8989 C44.4138,7.0729 42.9938,6.2279 41.6458,6.2279 C38.3748,6.2279 36.4158,8.7979 36.4158,11.7269 C36.4158,14.6569 38.3748,17.2269 41.6458,17.2269 C42.9758,17.2269 44.3418,16.7959 45.2938,15.3219 L46.3548,16.0769 Z" id="Fill-1" fill="white"></path>
            <mask id="mask-2" fill="white">
                <use xlink:href="#path-1"></use>
            </mask>
            <g id="Clip-4"></g>
            <polygon id="Fill-3" fill="white" mask="url(#mask-2)" points="48.729 18.0891 49.915 18.0891 49.915 4.5021 48.729 4.5021"></polygon>
            <path d="M57.9134,13.9026 C56.7094,13.9026 53.9954,13.9916 53.9954,15.6816 C53.9954,16.7956 55.0194,17.2266 55.9724,17.2266 C57.6984,17.2266 58.5244,16.0046 58.5244,14.5126 L58.5244,13.9026 L57.9134,13.9026 Z M58.5244,12.9316 L58.5244,12.7156 C58.5244,11.2606 57.8234,10.5416 56.3674,10.5416 C55.3794,10.5416 54.5174,10.8826 53.7974,11.5296 L53.0794,10.6856 C53.8514,9.8946 55.0564,9.4636 56.6374,9.4636 C58.2904,9.4636 59.7104,10.3976 59.7104,12.4466 L59.7104,16.2026 C59.7104,16.8496 59.7824,17.6406 59.8544,18.0896 L58.7044,18.0896 C58.6324,17.6756 58.5964,17.1736 58.5964,16.7236 L58.5604,16.7236 C57.8774,17.8386 56.9424,18.3056 55.5954,18.3056 C54.1034,18.3056 52.7014,17.4786 52.7014,15.8436 C52.7014,13.1106 55.9184,12.9316 57.9314,12.9316 L58.5244,12.9316 Z" id="Fill-5" fill="white" mask="url(#mask-2)"></path>
            <path d="M63.091,18.0891 L64.277,18.0891 L64.277,9.6781 L63.091,9.6781 L63.091,18.0891 Z M63.684,7.3071 C63.253,7.3071 62.821,6.9471 62.821,6.4431 C62.821,5.9401 63.253,5.5811 63.684,5.5811 C64.116,5.5811 64.547,5.9401 64.547,6.4431 C64.547,6.9471 64.116,7.3071 63.684,7.3071 Z" id="Fill-6" fill="white" mask="url(#mask-2)"></path>
            <path d="M67.4949,11.5481 C67.4949,10.9191 67.4409,10.3081 67.4049,9.6781 L68.6809,9.6781 L68.6809,10.9551 L68.7169,10.9551 C69.2919,9.9841 70.4239,9.4631 71.4309,9.4631 C72.3479,9.4631 73.5509,9.7691 74.1079,11.2061 C74.5939,10.1281 75.7439,9.4631 76.8759,9.4631 C79.0149,9.4631 80.0389,10.6671 80.0389,12.7521 L80.0389,18.0901 L78.8529,18.0901 L78.8529,13.1831 C78.8529,11.4761 78.3679,10.5411 76.7319,10.5411 C74.9719,10.5411 74.3599,12.0511 74.3599,13.6151 L74.3599,18.0901 L73.1739,18.0901 L73.1739,13.1831 C73.1739,11.4761 72.6889,10.5411 71.0529,10.5411 C70.7659,10.5411 68.6809,10.7031 68.6809,13.7771 L68.6809,18.0901 L67.4949,18.0901 L67.4949,11.5481 Z" id="Fill-7" fill="white" mask="url(#mask-2)"></path>
            <path d="M94.0784,16.0769 C93.2334,17.3889 91.4724,18.4129 89.3694,18.4129 C85.5774,18.4129 82.7374,15.5919 82.7374,11.7269 C82.7374,7.8639 85.5774,5.0419 89.3694,5.0419 C90.9514,5.0419 92.6584,5.6349 93.7724,7.0549 L92.6414,7.8989 C92.1374,7.0729 90.7174,6.2279 89.3694,6.2279 C86.0984,6.2279 84.1394,8.7979 84.1394,11.7269 C84.1394,14.6569 86.0984,17.2269 89.3694,17.2269 C90.6994,17.2269 92.0654,16.7959 93.0174,15.3219 L94.0784,16.0769 Z" id="Fill-8" fill="white" mask="url(#mask-2)"></path>
            <path d="M102.7249,13.2371 C102.7249,11.6371 101.7009,10.5411 99.9929,10.5411 C98.4479,10.5411 97.0449,11.8531 97.0449,13.2371 L102.7249,13.2371 Z M97.0099,14.2081 C97.1539,15.8971 98.4299,17.2271 100.1009,17.2271 C101.3589,17.2271 102.3289,16.5261 102.7969,15.7711 L103.7129,16.5261 C102.7249,17.7841 101.4849,18.3051 100.1009,18.3051 C97.6029,18.3051 95.7519,16.4181 95.7519,13.8841 C95.7519,11.3501 97.6029,9.4631 99.9929,9.4631 C102.5449,9.4811 104.0189,11.3681 104.0189,13.6681 L104.0189,14.2081 L97.0099,14.2081 Z" id="Fill-9" fill="white" mask="url(#mask-2)"></path>
            <path d="M107.6693,9.6785 C107.7233,10.1285 107.7233,10.5775 107.7233,11.0265 L107.7583,11.0265 C108.2803,10.1105 109.4663,9.4635 110.5803,9.4635 C112.7193,9.4635 113.7433,10.6675 113.7433,12.7525 L113.7433,18.0895 L112.5583,18.0895 L112.5583,13.4345 C112.5583,11.5665 112.0363,10.5415 110.2743,10.5415 C110.0233,10.5415 107.7233,10.7035 107.7233,13.7765 L107.7233,18.0895 L106.5373,18.0895 L106.5373,11.5305 C106.5373,11.0805 106.4833,10.2895 106.4473,9.6785 L107.6693,9.6785 Z" id="Fill-10" fill="white" mask="url(#mask-2)"></path>
            <path d="M121.2396,10.7571 L118.8136,10.7571 L118.8136,15.7171 C118.8136,16.9751 119.2996,17.2271 120.0356,17.2271 C120.4486,17.2271 120.8986,17.1011 121.2576,16.9031 L121.3116,18.0001 C120.8806,18.1971 120.3056,18.3051 119.7126,18.3051 C118.8136,18.3051 117.6276,17.9101 117.6276,16.0591 L117.6276,10.7571 L115.8486,10.7571 L115.8486,9.6781 L117.6276,9.6781 L117.6276,7.3071 L118.8136,7.3071 L118.8136,9.6781 L121.2396,9.6781 L121.2396,10.7571 Z" id="Fill-11" fill="white" mask="url(#mask-2)"></path>
            <path d="M129.7596,13.2371 C129.7596,11.6371 128.7346,10.5411 127.0276,10.5411 C125.4826,10.5411 124.0806,11.8531 124.0806,13.2371 L129.7596,13.2371 Z M124.0446,14.2081 C124.1876,15.8971 125.4646,17.2271 127.1356,17.2271 C128.3926,17.2271 129.3636,16.5261 129.8316,15.7711 L130.7476,16.5261 C129.7596,17.7841 128.5196,18.3051 127.1356,18.3051 C124.6376,18.3051 122.7856,16.4181 122.7856,13.8841 C122.7856,11.3501 124.6376,9.4631 127.0276,9.4631 C129.5796,9.4811 131.0526,11.3681 131.0526,13.6681 L131.0526,14.2081 L124.0446,14.2081 Z" id="Fill-12" fill="white" mask="url(#mask-2)"></path>
            <path d="M133.6971,12.3025 C133.6971,11.5485 133.6611,10.9005 133.6251,9.6785 L134.7931,9.6785 L134.7931,11.2425 L134.8291,11.2425 C135.1711,10.3435 136.0511,9.4635 137.5251,9.4635 C137.8671,9.4635 138.1541,9.4995 138.4061,9.5715 L138.1721,10.7395 C138.0281,10.6855 137.8131,10.6495 137.4891,10.6495 C135.6921,10.6495 134.8831,12.2125 134.8831,13.3445 L134.8831,18.0895 L133.6971,18.0895 L133.6971,12.3025 Z" id="Fill-13" fill="white" mask="url(#mask-2)"></path>
            <path d="M148.867,10.0046 L148.203,10.0046 L148.203,6.1786 L148.181,6.1786 L146.644,10.0046 L146.213,10.0046 L144.676,6.1786 L144.654,6.1786 L144.654,10.0046 L143.99,10.0046 L143.99,5.4486 L145.018,5.4486 L146.445,8.9426 L147.871,5.4486 L148.867,5.4486 L148.867,10.0046 Z M143.039,6.0456 L141.568,6.0456 L141.568,10.0046 L140.904,10.0046 L140.904,6.0456 L139.401,6.0456 L139.401,5.4486 L143.039,5.4486 L143.039,6.0456 Z" id="Fill-14" fill="white" mask="url(#mask-2)"></path>
            <polygon id="Fill-15" fill="white" mask="url(#mask-2)" points="23.619 4.7239 23.619 -0.0001 4.724 -0.0001 0 -0.0001 0 4.7239 0 18.8949 0 23.6189 4.724 23.6189 14.171 23.6189 14.171 18.8949 4.724 18.8949 4.724 4.7239"></polygon>
            <polygon id="Fill-16" fill="white" mask="url(#mask-2)" points="23.619 9.4475 23.619 14.1715 23.619 23.6185 18.895 23.6185 18.895 14.1715 9.448 14.1715 9.448 9.4475"></polygon>
        </g>
    </g>
</svg>
