<?xml version="1.0" encoding="UTF-8"?>
<svg width="300px" height="52px" viewBox="0 0 243 33" version="1.1" xmlns="http://www.w3.org/2000/svg" xmlns:xlink="http://www.w3.org/1999/xlink">
    <title>ClaimCenterLoginLogo</title>
    <defs>
        <polygon id="path-1" points="0 0.4355 23.3779 0.4355 23.3779 27.9995 0 27.9995"></polygon>
        <polygon id="path-3" points="0 28.6758 234.699 28.6758 234.699 -0.0002 0 -0.0002"></polygon>
    </defs>
    <g id="ClaimCenterLoginLogo" stroke="none" stroke-width="1" fill="none" fill-rule="evenodd">
        <g id="Page-1" transform="translate(4.000000, 2.000000)">
            <g id="Group-3" transform="translate(0.000000, 0.675800)">
                <mask id="mask-2" fill="white">
                    <use xlink:href="#path-1"></use>
                </mask>
                <g id="Clip-2"></g>
                <path d="M23.3779,23.1835 C21.6369,25.8875 18.0059,27.9995 13.6709,27.9995 C5.8539,27.9995 -0.0001,22.1835 -0.0001,14.2175 C-0.0001,6.2525 5.8539,0.4355 13.6709,0.4355 C16.9309,0.4355 20.4509,1.6585 22.7479,4.5845 L20.4139,6.3265 C19.3759,4.6215 16.4489,2.8805 13.6709,2.8805 C6.9279,2.8805 2.8899,8.1785 2.8899,14.2175 C2.8899,20.2565 6.9279,25.5545 13.6709,25.5545 C16.4119,25.5545 19.2289,24.6645 21.1909,21.6275 L23.3779,23.1835 Z" id="Fill-1" fill="#006D9A" mask="url(#mask-2)"></path>
            </g>
            <mask id="mask-4" fill="white">
                <use xlink:href="#path-3"></use>
            </mask>
            <g id="Clip-5"></g>
            <polygon id="Fill-4" fill="#006D9A" mask="url(#mask-4)" points="28.273 28.0088 30.717 28.0088 30.717 -0.0002 28.273 -0.0002"></polygon>
            <path d="M47.2051,19.3769 C44.7231,19.3769 39.1291,19.5619 39.1291,23.0439 C39.1291,25.3409 41.2401,26.2309 43.2041,26.2309 C46.7611,26.2309 48.4651,23.7109 48.4651,20.6359 L48.4651,19.3769 L47.2051,19.3769 Z M48.4651,17.3759 L48.4651,16.9319 C48.4651,13.9309 47.0191,12.4479 44.0181,12.4479 C41.9811,12.4479 40.2031,13.1519 38.7211,14.4859 L37.2391,12.7449 C38.8321,11.1139 41.3141,10.2259 44.5741,10.2259 C47.9831,10.2259 50.9101,12.1519 50.9101,16.3759 L50.9101,24.1189 C50.9101,25.4519 51.0581,27.0829 51.2061,28.0089 L48.8351,28.0089 C48.6861,27.1559 48.6131,26.1189 48.6131,25.1929 L48.5391,25.1929 C47.1311,27.4899 45.2041,28.4529 42.4261,28.4529 C39.3511,28.4529 36.4611,26.7489 36.4611,23.3779 C36.4611,17.7459 43.0931,17.3759 47.2421,17.3759 L48.4651,17.3759 Z" id="Fill-6" fill="#006D9A" mask="url(#mask-4)"></path>
            <path d="M57.879,28.0088 L60.323,28.0088 L60.323,10.6698 L57.879,10.6698 L57.879,28.0088 Z M59.102,5.7798 C58.212,5.7798 57.322,5.0388 57.322,4.0008 C57.322,2.9638 58.212,2.2238 59.102,2.2238 C59.99,2.2238 60.879,2.9638 60.879,4.0008 C60.879,5.0388 59.99,5.7798 59.102,5.7798 Z" id="Fill-7" fill="#006D9A" mask="url(#mask-4)"></path>
            <path d="M66.957,14.5233 C66.957,13.2263 66.846,11.9663 66.771,10.6693 L69.401,10.6693 L69.401,13.3003 L69.476,13.3003 C70.661,11.2993 72.995,10.2253 75.07,10.2253 C76.96,10.2253 79.441,10.8553 80.59,13.8193 C81.591,11.5963 83.962,10.2253 86.296,10.2253 C90.704,10.2253 92.816,12.7083 92.816,17.0053 L92.816,28.0083 L90.371,28.0083 L90.371,17.8943 C90.371,14.3753 89.371,12.4483 85.999,12.4483 C82.369,12.4483 81.109,15.5603 81.109,18.7843 L81.109,28.0083 L78.664,28.0083 L78.664,17.8943 C78.664,14.3753 77.663,12.4483 74.292,12.4483 C73.699,12.4483 69.401,12.7823 69.401,19.1173 L69.401,28.0083 L66.957,28.0083 L66.957,14.5233 Z" id="Fill-8" fill="#006D9A" mask="url(#mask-4)"></path>
            <path d="M121.7568,23.8593 C120.0158,26.5633 116.3848,28.6753 112.0498,28.6753 C104.2328,28.6753 98.3788,22.8593 98.3788,14.8933 C98.3788,6.9283 104.2328,1.1113 112.0498,1.1113 C115.3098,1.1113 118.8298,2.3343 121.1268,5.2603 L118.7928,7.0023 C117.7548,5.2973 114.8278,3.5563 112.0498,3.5563 C105.3068,3.5563 101.2688,8.8543 101.2688,14.8933 C101.2688,20.9323 105.3068,26.2303 112.0498,26.2303 C114.7908,26.2303 117.6078,25.3403 119.5698,22.3033 L121.7568,23.8593 Z" id="Fill-9" fill="#006D9A" mask="url(#mask-4)"></path>
            <path d="M139.581,18.0058 C139.581,14.7078 137.469,12.4478 133.949,12.4478 C130.764,12.4478 127.873,15.1528 127.873,18.0058 L139.581,18.0058 Z M127.8,20.0068 C128.096,23.4888 130.727,26.2308 134.172,26.2308 C136.766,26.2308 138.766,24.7848 139.728,23.2298 L141.618,24.7848 C139.581,27.3788 137.024,28.4528 134.172,28.4528 C129.022,28.4528 125.206,24.5638 125.206,19.3398 C125.206,14.1148 129.022,10.2258 133.949,10.2258 C139.21,10.2628 142.248,14.1518 142.248,18.8948 L142.248,20.0068 L127.8,20.0068 Z" id="Fill-10" fill="#006D9A" mask="url(#mask-4)"></path>
            <path d="M149.7734,10.6698 C149.8834,11.5968 149.8834,12.5228 149.8834,13.4488 L149.9584,13.4488 C151.0324,11.5598 153.4774,10.2258 155.7744,10.2258 C160.1834,10.2258 162.2944,12.7078 162.2944,17.0058 L162.2944,28.0088 L159.8504,28.0088 L159.8504,18.4128 C159.8504,14.5608 158.7754,12.4478 155.1444,12.4478 C154.6264,12.4478 149.8834,12.7818 149.8834,19.1168 L149.8834,28.0088 L147.4394,28.0088 L147.4394,14.4858 C147.4394,13.5598 147.3284,11.9298 147.2534,10.6698 L149.7734,10.6698 Z" id="Fill-11" fill="#006D9A" mask="url(#mask-4)"></path>
            <path d="M177.748,12.8935 L172.747,12.8935 L172.747,23.1185 C172.747,25.7115 173.747,26.2305 175.267,26.2305 C176.118,26.2305 177.045,25.9705 177.785,25.5635 L177.896,27.8235 C177.008,28.2315 175.822,28.4535 174.6,28.4535 C172.747,28.4535 170.302,27.6385 170.302,23.8225 L170.302,12.8935 L166.634,12.8935 L166.634,10.6695 L170.302,10.6695 L170.302,5.7805 L172.747,5.7805 L172.747,10.6695 L177.748,10.6695 L177.748,12.8935 Z" id="Fill-12" fill="#006D9A" mask="url(#mask-4)"></path>
            <path d="M195.3105,18.0058 C195.3105,14.7078 193.1985,12.4478 189.6785,12.4478 C186.4935,12.4478 183.6035,15.1528 183.6035,18.0058 L195.3105,18.0058 Z M183.5295,20.0068 C183.8255,23.4888 186.4565,26.2308 189.9015,26.2308 C192.4945,26.2308 194.4955,24.7848 195.4585,23.2298 L197.3475,24.7848 C195.3105,27.3788 192.7535,28.4528 189.9015,28.4528 C184.7515,28.4528 180.9355,24.5638 180.9355,19.3398 C180.9355,14.1148 184.7515,10.2258 189.6785,10.2258 C194.9395,10.2628 197.9775,14.1518 197.9775,18.8948 L197.9775,20.0068 L183.5295,20.0068 Z" id="Fill-13" fill="#006D9A" mask="url(#mask-4)"></path>
            <path d="M203.4277,16.079 C203.4277,14.523 203.3537,13.189 203.2797,10.67 L205.6877,10.67 L205.6877,13.893 L205.7617,13.893 C206.4657,12.041 208.2817,10.225 211.3197,10.225 C212.0237,10.225 212.6157,10.3 213.1347,10.448 L212.6527,12.856 C212.3567,12.745 211.9117,12.671 211.2447,12.671 C207.5397,12.671 205.8727,15.893 205.8727,18.227 L205.8727,28.009 L203.4277,28.009 L203.4277,16.079 Z" id="Fill-14" fill="#006D9A" mask="url(#mask-4)"></path>
            <path d="M234.6992,11.3417 L233.3312,11.3417 L233.3312,3.4537 L233.2862,3.4537 L230.1172,11.3417 L229.2282,11.3417 L226.0592,3.4537 L226.0132,3.4537 L226.0132,11.3417 L224.6452,11.3417 L224.6452,1.9497 L226.7652,1.9497 L229.7072,9.1537 L232.6472,1.9497 L234.6992,1.9497 L234.6992,11.3417 Z M222.6852,3.1807 L219.6532,3.1807 L219.6532,11.3417 L218.2852,11.3417 L218.2852,3.1807 L215.1852,3.1807 L215.1852,1.9497 L222.6852,1.9497 L222.6852,3.1807 Z" id="Fill-15" fill="#006D9A" mask="url(#mask-4)"></path>
        </g>
    </g>
</svg>
